<svg height="18" viewBox="0 0 18 18" width="18" xmlns="http://www.w3.org/2000/svg"><g fill="#494c4e"><path d="m12.1.6a.944.944 0 0 0 .2 1.04l1.352 1.353-3.372 3.377a.956.956 0 0 0 1.35 1.35l3.382-3.38 1.352 1.352a.944.944 0 0 0 1.04.2.958.958 0 0 0 .596-.875v-4.057a.964.964 0 0 0 -.96-.96h-4.057a.958.958 0 0 0 -.883.6z"/><path d="m14 11v5a2.006 2.006 0 0 1 -2 2h-10a2.006 2.006 0 0 1 -2-2v-10a2.006 2.006 0 0 1 2-2h5a1 1 0 0 1 0 2h-5v10h10v-5a1 1 0 0 1 2 0z"/></g></svg><svg height="32" viewBox="0 0 32 32" width="32" xmlns="http://www.w3.org/2000/svg"><path d="m27.26 27.271h-4.733v-7.427c0-1.771-.037-4.047-2.475-4.047-2.468 0-2.844 1.921-2.844 3.916v7.557h-4.739v-15.271h4.552v2.083h.061c.636-1.203 2.183-2.468 4.491-2.468 4.801 0 5.692 3.161 5.692 7.271v8.385zm-20.145-17.359c-1.527 0-2.751-1.235-2.751-2.756 0-1.516 1.229-2.749 2.751-2.749s2.755 1.233 2.755 2.749c0 1.521-1.233 2.756-2.755 2.756zm2.374 17.359h-4.749v-15.271h4.749zm20.147-27.271h-27.276c-1.303 0-2.36 1.031-2.36 2.307v27.387c0 1.276 1.057 2.307 2.36 2.307h27.271c1.301 0 2.369-1.031 2.369-2.307v-27.387c0-1.276-1.068-2.307-2.369-2.307z"/></svg>