<svg width="25" height="24" viewBox="0 0 25 24" fill="none" xmlns="http://www.w3.org/2000/svg">
<g clip-path="url(#clip0_164_8155)">
<path d="M21.5 3C22.0523 3 22.5 3.44772 22.5 4V20.0066C22.5 20.5552 22.0447 21 21.5082 21H3.4918C2.94405 21 2.5 20.5551 2.5 20.0066V19H20.5V7.3L12.5 14.5L2.5 5.5V4C2.5 3.44772 2.94772 3 3.5 3H21.5ZM8.5 15V17H0.5V15H8.5ZM5.5 10V12H0.5V10H5.5ZM20.0659 5H4.93414L12.5 11.8093L20.0659 5Z" fill="#ffffff"/>
</g>
<defs>
<clipPath id="clip0_164_8155">
<rect width="24" height="24" fill="white" transform="translate(0.5)"/>
</clipPath>
</defs>
</svg>
