<?xml version="1.0" encoding="UTF-8"?> <svg xmlns="http://www.w3.org/2000/svg" height="30" viewBox="0 0 289 30" width="289"><path d="m70.0127647 9.176231c2.7471231 0 4.7556329.60384435 6.0255295 1.8115331 1.2958128 1.2339428 1.9437191 3.2817627 1.9437191 6.1434599 0 .1575246-.006479.4266291-.0194371.8073136-.0129582.3806845-.0194372.5841538-.0194372.6104079l-.2332463 5.5921238-.008198.2123546c-.0352603 1.3811682.3173419 2.0717522 1.0578063 2.0717522.4924089 0 .8552365-.2362869 1.0884828-.7088607h.0777487l-.0063468.2218204c-.0253874.4372111-.1269368.8358448-.3046482 1.1959011-.699739 1.4439756-1.9696355 2.1659634-3.8096896 2.1659634-1.1662315 0-2.1510493-.3347398-2.9544532-1.0042194s-1.2310221-1.6080637-1.2828546-2.8157524c-.3887439 1.1551805-1.0560875 2.0806376-2.0020308 2.7763713s-2.0409051 1.0436005-3.2848854 1.0436005c-1.5031428 0-2.7600812-.4922644-3.7708152-1.4767932s-1.516101-2.3431786-1.516101-4.0759494c0-1.8377871.6543855-3.2883263 1.9631564-4.3516174 1.3087709-1.0632912 2.8313509-1.5949367 4.5677401-1.5949367 1.7623054 0 3.1358669.3544304 4.1206846 1.0632911l.0777488-4.2137834v-.1969058l-.0027713-.2786293c-.0572739-2.8334689-1.0022935-4.25020329-2.8350587-4.25020329-.3887438 0-.6284692.02625411-.7191761.07876229-.0907069.0525082-.200851.1837787-.3304323.3938116l-3.148825 5.9071729h-.0777488l-2.4490861-5.6315049.5476968-.1928801c2.5478559-.86906914 4.9828321-1.3036037 7.3049286-1.3036037zm56.6399773 0c1.010863 0 2.017938.11783795 3.024583.31077997l.001476.92049523c-.458716-.1900618-1.14319-.3501199-2.053423-.48017424l-.311772-.0422402h-.544241c-.907069 0-1.658641.23628694-2.254715.70886074-.596073.4725739-.89411 1.1551805-.89411 2.04782 0 .8138772.278599 1.4702297.835799 1.9690577.510766.4572589 1.320964.947609 2.430594 1.4710501l.31005.1435771 2.48796 1.1026723c1.399478.6038444 2.468524 1.3127051 3.207137 2.1265823s1.10792 1.9165495 1.10792 3.3080169c0 2.0740741-.790446 3.6821378-2.371337 4.8241913-1.580892 1.1420534-3.693067 1.7130801-6.336525 1.7130801-2.296579 0-4.504828-.3467405-6.624747-1.0402217l-.528139-.180594 2.138091-6.1040788h.077748l3.109951 6.1040788c.13822.3033807.368587.4719256.6911.5056345l.125262.0063205h.894111c1.114399 0 2.002031-.262541 2.662895-.7876231.660865-.525082.991297-1.2208157.991297-2.0872011 0-.761369-.265642-1.3652133-.796925-1.8115331-.493334-.4144397-1.37214-.9194293-2.636417-1.5149688l-.298599-.1390396-2.643458-1.2601969c-2.513877-1.2076887-3.770815-3.07173-3.770815-5.5921238 0-1.8902953.712697-3.3999062 2.138091-4.5288326s3.369113-1.6933896 5.831158-1.6933896zm35.734492.123769c2.782979 0 5.080851.8349641 6.893617 2.5048924 1.812766 1.6699282 2.719149 4.2139595 2.719149 7.6320939 0 3.235486-.906383 5.6881931-2.719149 7.3581213-1.812766 1.6699283-4.034042 2.5048924-6.66383 2.5048924-4.570768 0-7.370078-2.309771-8.39793-6.9293131l-.0659-.3113914h.076596l.128767.2526059c1.18528 2.2321179 3.082783 3.3481769 5.69251 3.3481769 1.60851 0 2.923404-.5936073 3.944681-1.7808219.967525-1.1247297 1.476749-2.7939351 1.527671-5.0076164l.004244-.3739883v-.0782779h-11.489362l-.021277-.304414c-.011347-.1971443-.017021-.3826919-.017021-.5566428 0-1.5133724.242553-2.824527.72766-3.9334638.485106-1.1089367 1.142553-1.9634703 1.97234-2.5636008.829787-.6001304 1.717021-1.0437051 2.661702-1.33072402s1.953192-.43052838 3.025532-.43052838zm119.225974-.107191c2.101826 0 4.203653.29757463 6.30548.8927239l.573226.1696913-2.188679 5.7055631h-.078168l-3.048517-5.4694708-.08058-.1238756c-.193648-.2720405-.426702-.42506324-.699161-.4590683l-.119181-.0072868h-.54717l-.268895.00708277c-.792614.0424966-1.458598.27622793-1.997951.70119403-.599281.4721845-.898922 1.1542289-.898922 2.046133 0 .8132067.280099 1.4690185.840297 1.9674355.513514.4568823 1.328071.9468284 2.443672 1.4698383l.311718.1434589 2.501348 1.1017639.344831.1530227c1.239003.569099 2.198857 1.2263682 2.879563 1.9718077.742587.8132067 1.113881 1.9149706 1.113881 3.3052917 0 2.0723654-.794699 3.6791045-2.384097 4.8202171s-3.712938 1.7116689-6.37062 1.7116689c-2.308936 0-4.529067-.3464549-6.660393-1.0393648l-.530982-.1804452 2.149596-6.0990502h.078167l3.126685 6.0990502.056454.1073588c.141859.2357684.354647.3683881.638365.3978592l.125936.0063152h.898921l.275349-.0054651c.992198-.0400774 1.792823-.3005804 2.401875-.7815091.664421-.5246495.996631-1.21981.996631-2.0854817 0-.7607417-.267071-1.3640886-.801213-1.8100407-.495989-.4140983-1.379523-.9186719-2.650603-1.5137208l-.300206-.1389251-2.657682-1.2591587-.265957-.1317981c-2.350099-1.2087683-3.525148-3.0273413-3.525148-5.4557189 0-1.8887381.716532-3.3971053 2.149596-4.5251017 1.433064-1.12799641 3.387242-1.6919946 5.862534-1.6919946zm-18.877359 0c1.09434 0 2.12354.14427861 3.087601.43283582s1.869497.73450928 2.716307 1.33785618c.846811.6033469 1.517745 1.4624604 2.012804 2.5773406.495058 1.1148801.742587 2.4330619.742587 3.9545454 0 .1748832-.00579.3614252-.01737.5596261l-.021713.3060456h-11.725068v.0786974l.004331.3759927c.051967 2.2255457.571638 3.9036973 1.559012 5.034455 1.042228 1.1935776 2.384097 1.7903664 4.025606 1.7903664 2.663265 0 4.599696-1.1220405 5.809292-3.3661216l.131409-.2539598h.078167l-.067251.3130603c-1.048939 4.6443008-3.905678 6.9664512-8.570215 6.9664512-2.683738 0-4.950584-.8394392-6.800539-2.5183175s-2.774933-4.1447309-2.774933-7.3975577c0-3.436454.924978-5.9941203 2.774933-7.6729986s4.194968-2.5183175 7.03504-2.5183175zm-36.621294-8.892809v13.2211669l.132711-.2837479c1.306375-2.6964069 3.294483-4.04461032 5.964324-4.04461032 2.240791 0 4.025607.89846222 5.354448 2.69538672s1.993261 4.1906377 1.993261 7.1811397c0 3.0167346-.807727 5.476029-2.42318 7.3778834-1.615454 1.9018543-3.725966 2.8527815-6.331537 2.8527815-2.059641 0-3.622984-.6424279-4.690027-1.9272838l-.156334-.1975466-6.175202 2.1248304h-.078167v-25.10447761l-.007179-.17425858c-.023929-.28106222-.107679-.51528074-.251251-.70265555l-.093322-.10680365-1.876011-1.8100407v-.07869742zm-113.339968 2.575246v6.61603376h4.781549v.78762304h-4.781549v13.1533052l.005442.2616878c.032654.766751.212254 1.368692.538799 1.8058228.362828.4857009.868195.7285513 1.516101.7285513.984818 0 1.736389-.4857009 2.254714-1.4571027l.077749.0393812-.059922.2873193c-.26407 1.1352957-.820732 2.1028138-1.669988 2.9025541-.920027.8663854-2.235277 1.2995781-3.94575 1.2995781-3.369113 0-5.05367-1.798406-5.05367-5.395218v-13.6258791h-2.138091v-.78762304h1.749347l.176135-.00534806c.455614-.02852298.798604-.17113785 1.028971-.42784463l5.442414-6.18284107zm41.225413-.875246 5 .08761329v6.91238671h-.062219l-4.013147-5.88409778c-.207397-.3046782-.497754-.4570173-.87107-.4570173l-.007564-.08288492-5.468194-.02177229v22.72865059c0 .4130135.141498.748587.424496 1.0067204l2.855705 2.6329613v.07744h-13.506712v-.07744l2.855705-2.6329613c.282998-.2839468.424497-.6195202.424497-1.0067204v-22.72865059h-2.199665c-.308724 0-.520973.03226668-.636745.09680004-.115771.06453337-.237975.23877345-.36661.52272025l-6.428477 13.016759v-14.190507l22.004.044zm-103.8190709-1c2.4775876 0 4.3553382.6741468 5.6332518 2.02244039 1.2223522 1.28967214 1.8601011 3.33986431 1.9132469 6.15057652l.0036235.38799291h2.0733497v.78541378h-2.0733497v15.8260869c0 .3366059.0862233.6155079.2586698.8367061l.0934085.1057904 1.9168704 1.8064516v.0785414h-12.1271394v-.0785414l2.8948656-2.002805c.2607987-.1832632.4237978-.3272558.4889975-.4319776.0521598-.0837774.0834556-.2178214.0938875-.4021318l.003912-.1476578v-15.5904628h-4.7726161v-.78541378h4.7726161v-4.20196354c0-2.43478261-.4694376-3.65217391-1.4083129-3.65217391-.1825591 0-.3129585.02618046-.3911981.07854137-.0651996.0436341-.1394548.15090126-.2227655.32180147l-.0510731.11017609-2.7383863 5.5371669h-.0782396l-2.4645477-5.89060308c2.0863896-.57597008 4.1466993-.86395512 6.1809291-.86395512zm153.2651629 8.192809c1.045702 0 1.887128.37704809 2.524276 1.1311443l.133406.1673632-2.149596 6.1777476h-.078167l-3.087601-3.6987788-.078167-.0879274c-.208446-.2124507-.416892-.2487227-.625337-.1088162-.456977.3390043-.969458 1.0132875-1.537441 2.0228497l-.143152.2593755v10.624152l.007237.1287334c.033776.2947106.185768.5497485.455975.7651139l.123041.0898705 3.830189 2.2428765v.0786974h-13.092992v-.0786974l1.915094-1.8100407.082442-.083616c.153892-.1770692.24183-.4131615.263814-.7082768l.005496-.1524763v-13.614654l-.007178-.1646221c-.023929-.2676783-.10768-.5018968-.251252-.7026556l-.093322-.11644-1.915094-1.96743559v-.07869742h8.67655l-.000313 5.03540131.096664-.3800936c.372199-1.3776603.952391-2.5293843 1.740576-3.455172.859838-1.00995028 1.928122-1.5149254 3.204852-1.5149254zm-16.727763 0c1.045702 0 1.887128.37704809 2.524277 1.1311443l.133405.1673632-2.149596 6.1777476h-.078167l-3.087601-3.6987788-.078167-.0879274c-.208446-.2124507-.416892-.2487227-.625337-.1088162-.456977.3390043-.969457 1.0132875-1.537441 2.0228497l-.143152.2593755v10.624152l.007238.1287334c.033775.2947106.185767.5497485.455974.7651139l.123041.0898705 3.830189 2.2428765v.0786974h-13.092992v-.0786974l1.915094-1.8100407.082442-.083616c.153892-.1770692.24183-.4131615.263814-.7082768l.005496-.1524763v-13.614654l-.007178-.1646221c-.023929-.2676783-.107679-.5018968-.251252-.7026556l-.093322-.11644-1.915094-1.96743559v-.07869742h8.67655l-.00055 5.03540131.096902-.3800936c.372198-1.3776603.95239-2.5293843 1.740575-3.455172.859838-1.00995028 1.928122-1.5149254 3.204852-1.5149254zm62.72911-8.892809v25.8521031l.006107.1438687c.024427.2803596.122136.5164519.293127.7082768l.091602.0922236 1.915094 1.8100407v.0786974h-10.943396v-.0786974l1.915094-1.8100407.093322-.1060006c.143573-.1846981.227323-.4095478.251252-.6745494l.007178-.1638191v-21.95658071l-.007178-.17425858c-.023929-.28106222-.107679-.51528074-.251252-.70265555l-.093322-.10680365-1.915094-1.8100407v-.07869742zm-34.315364 9.207598v16.6445047l.005497.1524763c.021984.2951153.109922.5312076.263814.7082768l.082441.083616 1.915095 1.8100407v.0786974h-10.943396v-.0786974l1.915094-1.8100407.082442-.083616c.153891-.1770692.241829-.4131615.263814-.7082768l.005496-.1524763v-13.614654l-.007179-.1646221c-.023928-.2676783-.107679-.5018968-.251251-.7026556l-.093322-.11644-1.915094-1.96743558v-.07869742zm-194.2954054-8.207598v9.5302391h-.0777488l-5.0147955-8.11251758-.0902269-.13224289c-.2508438-.33190371-.5835957-.49785556-.9982558-.49785556h-4.0040615l-.1339007.00382872c-.2087698.01276241-.34555.05743085-.4103407.13400531-.0777488.09188936-.11662313.3084857-.11662313.64978903v11.85372717h2.64345803l.1433493-.0172293c.3288125-.0574308.6179408-.2354665.8673847-.5341069l3.4986945-4.0956399h.0777488v10.0421941h-.0777488l-3.4986945-4.09564-.1184454-.1199894c-.2806244-.2613104-.5910121-.3919656-.9311629-.3919656h-2.60458373v11.8931083l.00238006.1386378c.00952027.2620052.04760127.432389.11424307.5111513.0777488.0918893.2591626.137834.5442414.137834h4.4705541l.1656049-.0055134c.4804873-.0330801.8140296-.2150211 1.0006266-.5458227l4.8204236-8.3488045h.0777487v9.6877637h-21.186539v-.0787623l2.6045837-2.4810127.0928225-.106088c.17136463-.2218204.25704695-.5015069.25704695-.8390597v-20.67510546l-.0071402-.16395419c-.02856077-.31826401-.14280385-.57866184-.34272925-.78119349l-2.6045837-2.48101265v-.07876231zm74.9498114 7.87623066c1.9437192 0 3.4403829.70886076 4.489991 2.12658224 1.049609 1.4177216 1.574413 3.4786686 1.574413 6.1828411 0 .9451477-.019437 2.5138303-.058312 4.7060478-.035172 1.9834349-.054433 3.252279-.057782 3.8065323l-.000529.1512736c0 .3938116.116623.7088608.349869.9451477l1.943719 1.8115331v.0787623h-10.9237015v-.0787623l1.8659704-1.8115331.0928226-.1052843c.1713646-.2186056.2570469-.485433.2570469-.8004822l.0004819-.0476805c.0032128-.2462678.0224893-1.3658642.0578297-3.3587893.0388744-2.1922175.0583115-3.6558837.0583115-4.3909986 0-1.9690576-.20733-3.4524144-.6219901-4.4500703s-1.1921478-1.4964838-2.332463-1.4964838c-1.1403153 0-2.0992167.5775902-2.8767044 1.7327707v11.9718706l.0054667.152602c.0255113.3445851.1403123.608767.3444028.7925457l1.9048448 1.8115331v.0787623h-10.8848274v-.0787623l1.9048448-1.8115331.0820006-.0836849c.1785792-.2067511.2678688-.4939053.2678688-.8614628v-13.625879l-.0071402-.1647579c-.0285607-.3214788-.1428038-.5947358-.3427292-.8197709l-1.9048448-1.96905771v-.0787623h8.6301131v4.17440221l.1025388-.2762064c1.0897735-2.80883 3.1159362-4.21324504 6.0784882-4.21324504zm-57.1842182 0c1.9437192 0 3.440383.70886076 4.4899913 2.12658224 1.0496084 1.4177216 1.5744126 3.4786686 1.5744126 6.1828411 0 .9451477-.0194372 2.5138303-.0583116 4.7060478-.0351721 1.9834349-.054433 3.252279-.0577827 3.8065323l-.0005289.1512736c0 .3938116.1166232.7088608.3498695.9451477l1.9437191 1.8115331v.0787623h-10.9237017v-.0787623l1.8659704-1.8115331.0928225-.1052843c.1713646-.2186056.2570469-.485433.2570469-.8004822l.0004819-.0476805c.0032128-.2462678.0224894-1.3658642.0578297-3.3587893.0388744-2.1922175.0583116-3.6558837.0583116-4.3909986 0-1.9690576-.2073301-3.4524144-.6219902-4.4500703-.41466-.9976559-1.1921477-1.4964838-2.332463-1.4964838-1.1403152 0-2.0992167.5775902-2.8767043 1.7327707v11.9718706l.0054667.152602c.0255113.3445851.1403122.608767.3444027.7925457l1.9048448 1.8115331v.0787623h-10.8848274v-.0787623l1.9048448-1.8115331.0820007-.0836849c.1785792-.2067511.2678688-.4939053.2678688-.8614628v-13.625879l-.0071402-.1647579c-.0285608-.3214788-.1428039-.5947358-.3427293-.8197709l-1.9048448-1.96905771v-.0787623h8.6301132v4.17440221l.1025387-.2762064c1.0897735-2.80883 3.1159363-4.21324504 6.0784882-4.21324504zm190.4435592 3.16447534c-1.074798 0-2.000742.4957015-2.777833 1.4871046l-.153434.20489v12.7096336l.147106.138267c.553322.4849364 1.259902.7274047 2.119741.7274047 2.944294 0 4.416442-2.7806423 4.416442-8.3419268 0-4.6169154-1.250674-6.9253731-3.752022-6.9253731zm-158.8386854 6.680813c-.9848177 0-1.7558263.3806845-2.3130258 1.1420534-.5571995.761369-.8357992 1.7327708-.8357992 2.9142054 0 1.0501641.2138091 1.8706048.6414273 2.4613221s.9783387.8860759 1.6521613.8860759c.8811527 0 1.619766-.4594468 2.2158399-1.3783403v-.0393812l.0777487-5.7496484-.2814505-.0850633c-.3773407-.1008157-.7629746-.1512236-1.1569017-.1512236zm92.2566934-8.9778791c-.842553 0-1.487234.4761905-1.934043 1.4285715-.446808.9523809-.670213 2.6418786-.670213 5.0684931 0 .4435747.012766.8349641.038298 1.1741683h5.629788l-.006047-.4261374c-.048377-2.5181194-.314446-4.3395439-.798209-5.4642736-.510638-1.1872146-1.26383-1.7808219-2.259574-1.7808219zm100.193852-.1032059c-1.016173 0-1.784816.5967888-2.30593 1.7903664-.493687 1.1307576-.765215 2.9619442-.814584 5.4935596l-.006171.4284214h5.745283c.026056-.3410222.039084-.7345093.039084-1.1804614 0-2.4396201-.227988-4.1381727-.683962-5.095658-.455975-.9574853-1.113882-1.436228-1.97372-1.436228zm-50.847709-8.578019c.91195 0 1.667565.2819991 2.266846.84599729.599282.56399819.898922 1.30506558.898922 2.22320217 0 .86567164-.29964 1.56739032-.898922 2.10515604-.599281.53776571-1.354896.80664857-2.266846.80664857-.859838 0-1.595912-.26888286-2.208221-.80664857-.612309-.53776572-.918464-1.2394844-.918464-2.10515604 0-.91813659.306155-1.65920398.918464-2.22320217s1.348383-.84599729 2.208221-.84599729z" fill=""></path></svg> 