<?xml version="1.0" encoding="utf-8"?>
<svg xmlns="http://www.w3.org/2000/svg" xmlns:xlink="http://www.w3.org/1999/xlink" width="81" height="80" viewBox="0 0 81 80">
  <defs>
    <path id="ic_gesture-a" d="M20.2725,30.4308333 C23.3641667,27.295 26.4558333,24.4683333 27.825,25.0425 C30.0333333,25.9258333 27.825,29.5916667 26.5,31.7558333 C25.3958333,33.6108333 13.8683333,48.9366667 13.8683333,59.625 C13.8683333,65.2783333 15.9883333,69.96 19.7866667,72.7866667 C23.0991667,75.26 27.4716667,76.0108333 31.4466667,74.8183333 C36.1725,73.4491667 40.0591667,68.635 44.9616667,62.5841667 C50.3058333,56.0033333 57.4608333,47.3908333 62.9816667,47.3908333 C70.1808333,47.3908333 70.2691667,51.8516667 70.755,55.2966667 C54.06,58.1233333 46.9933333,71.5058333 46.9933333,79.0141667 C46.9933333,86.5225 53.3533333,92.6616667 61.1708333,92.6616667 C68.37,92.6616667 80.1183333,86.7875 81.885,65.72 L92.75,65.72 L92.75,54.6783333 L81.8408333,54.6783333 C81.1783333,47.3908333 77.0266667,36.1283333 64.0416667,36.1283333 C54.1041667,36.1283333 45.58,44.5641667 42.2233333,48.6716667 C39.6616667,51.8958333 33.125,59.625 32.1091667,60.685 C31.005,62.01 29.1058333,64.395 27.2066667,64.395 C25.2191667,64.395 24.0266667,60.7291667 25.6166667,55.915 C27.1625,51.1008333 31.8,43.2833333 33.7875,40.3683333 C37.2325,35.3333333 39.5291667,31.8883333 39.5291667,25.8816667 C39.5291667,16.2975 32.2858333,13.25 28.4433333,13.25 C22.6133333,13.25 17.5341667,17.6666667 16.43,18.7708333 C14.84,20.3608333 13.515,21.6858333 12.5433333,22.8783333 L20.2725,30.4308333 L20.2725,30.4308333 Z M61.3033333,81.9291667 C59.9341667,81.9291667 58.035,80.7808333 58.035,78.7491667 C58.035,76.0991667 61.2591667,69.0325 70.7108333,66.5591667 C69.3858333,78.44 64.395,81.9291667 61.3033333,81.9291667 L61.3033333,81.9291667 Z"/>
    <linearGradient id="ic_gesture-c" x1="25.852%" x2="58.859%" y1="29.566%" y2="21.789%">
      <stop offset="0%" stop-color="#FF2E48"/>
      <stop offset="100%" stop-color="#76D8E5"/>
    </linearGradient>
  </defs>
  <g fill="none" fill-rule="evenodd" transform="translate(-12 -13)">
    <mask id="ic_gesture-b" fill="#fff">
      <use xlink:href="#ic_gesture-a"/>
    </mask>
    <g fill="url(#ic_gesture-c)" mask="url(#ic_gesture-b)">
      <path d="M0,0 L221,0 L221,221 L0,221 L0,0 Z" transform="translate(-57.417 -57.417)"/>
    </g>
  </g>
</svg>
